{"title":"Let.Me.In.2010.BDRip.XVID.AC3.HQ.Hive-CM8","uid":6125915,"size":1920765636,"categoryP":"video","categoryS":"movies","magnet":"?xt=urn:btih:8d32249ff7e23373fdac69fecf28747dfd675866&amp;dn=Let.Me.In.2010.BDRip.XVID.AC3.HQ.Hive-CM8&amp;tr=udp%3A%2F%2Ftracker.openbittorrent.com%3A80&amp;tr=udp%3A%2F%2Fopen.demonii.com%3A1337&amp;tr=udp%3A%2F%2Ftracker.coppersurfer.tk%3A6969&amp;tr=udp%3A%2F%2Fexodus.desync.com%3A6969","seeders":0,"leechers":1,"uploader":"TvTeam","files":6,"time":1295941027,"description":". \n  &lt;a href=&quot;\nhttp://www.torrentday.com/&quot; rel=&quot;nofollow&quot; target=&quot;_NEW&quot;&gt;\nhttp://www.torrentday.com/&lt;/a&gt;        :     The Hottest Private Tracker On The Net!!!\n &lt;a href=&quot;\nhttp://www.torrentday.com&quot; rel=&quot;nofollow&quot; target=&quot;_NEW&quot;&gt;\nhttp://www.torrentday.com&lt;/a&gt;          :     Once &amp; For all ;)\n\n\n               www . TorrentDay . Com \n\n(((((((((((((= Enjoy No RAR releases =))))))))))))))))))))\n\n\n...................................NFO:....................................\n\n.[img]http://img213.imageshack.us/img213/9366/letmein.jpg[/img]\n\nLet Me In 2010 BDRip XVID AC3 HQ Hive-CM8\n\n\n\n[b]Thx Hive\n\nCM8 Doing It Right The First Time :D\n\nWhy download a touched up rip of a rip BRrip\nGet the real deal BDRip\nEnjoy\n\nSource UK Bluray\n\nVideo: 720x304 @bitrate 1750 2pass\nAudio: True HD AC3 640 to AC3 5.1 @448\nSample: yes included\nSubs: yes in srt /subs[/b]\n &lt;a href=&quot;\nhttp://www.imdb.com/title/tt1228987/&quot; rel=&quot;nofollow&quot; target=&quot;_NEW&quot;&gt;\nhttp://www.imdb.com/title/tt1228987/&lt;/a&gt;\n\n\nGeneral\nComplete name                    : Let.Me.In.2010.BDRip.XVID.AC3.HQ.Hive-CM8.avi\nFormat                           : AVI\nFormat/Info                      : Audio Video Interleave\nFile size                        : 1.78 GiB\nDuration                         : 1h 55mn\nOverall bit rate                 : 2 203 Kbps\nWriting application              : Nandub v1.0rc2\nWriting library                  : Nandub build 1853/release\n\nVideo\nID                               : 0\nFormat                           : MPEG-4 Visual\nFormat profile                   : Advanced Simple@L5\nFormat settings, BVOP            : Yes\nFormat settings, QPel            : Yes\nFormat settings, GMC             : No warppoints\nFormat settings, Matrix          : Default (H.263)\nMuxing mode                      : Packed bitstream\nCodec ID                         : XVID\nCodec ID/Hint                    : XviD\nDuration                         : 1h 55mn\nBit rate                         : 1 746 Kbps\nWidth                            : 720 pixels\nHeight                           : 304 pixels\nDisplay aspect ratio             : 2.40:1\nFrame rate                       : 23.976 fps\nColor space                      : YUV\nChroma subsampling               : 4:2:0\nBit depth                        : 8 bits\nScan type                        : Progressive\nBits/(Pixel*Frame)               : 0.333\nStream size                      : 1.41 GiB (79%)\nWriting library                  : XviD 1.2.1 (UTC 2008-12-04)\n\nAudio\nID                               : 1\nFormat                           : AC-3\nFormat/Info                      : Audio Coding 3\nMode extension                   : CM (complete main)\nCodec ID                         : 2000\nDuration                         : 1h 55mn\nBit rate mode                    : Constant\nBit rate                         : 448 Kbps\nChannel(s)                       : 6 channels\nChannel positions                : Front: L C R, Side: L R, LFE\nSampling rate                    : 48.0 KHz\nBit depth                        : 16 bits\nStream size                      : 371 MiB (20%)\nAlignment                        : Split accross interleaves\nInterleave, duration             : 42 ms (1.00 video frame)\nInterleave, preload duration     : 500 ms\n\n\n\nKodi Smit-McPhee  ...  Owen  \nChloe Moretz  ...  Abby (as Chlo race Moretz)  \nRichard Jenkins  ...  The Father  \nCara Buono  ...  Owen's Mother  \nElias Koteas  ...  The Policeman  \nSasha Barrese  ...  Virginia  \nDylan Kenin  ...  Larry  \nChris Browning  ...  Jack  \nRitchie Coster  ...  Mr. Zoric  \nDylan Minnette  ...  Kenny  \nJimmy 'Jax' Pinchak  ...  Mark  \nNicolai Dorian  ...  Donald  \nRebekah Wiggins  ...  Nurse  \nSeth Adkins  ...  Seth  \nAshton Moio  ...  Lanky Kid  \n\n\n\nA bullied young boy befriends a young female vampire who lives in secrecy with her guardian.\n \n\n\n[img]http://img200.imageshack.us/img200/1315/79396111.png[/img]\n[img]http://img407.imageshack.us/img407/2116/lele.png[/img]\n[img]http://img248.imageshack.us/img248/9678/lellee.png[/img]\n[img]http://img541.imageshack.us/img541/1375/lellleee.png[/img]\n[img]http://img820.imageshack.us/img820/4933/lellleleleee.png[/img]\n[img]http://img837.imageshack.us/img837/4388/lellleleee.png[/img]\n[img]http://img28.imageshack.us/img28/7909/lelllelelelele.png[/img]\n[img]http://img407.imageshack.us/img407/6232/lelllelelellelele.png[/img]\n\n\n\n\n\nGreetz\n\niNK,LUSi,,MAGNET,CLASSiFiED,THC,LEGi0N,IMAGiNE,ViSiON,WBZ,FLAWL3SS,NOVA\nRapeseed,D2U,SAFC,goldadvance,MEMORY100,KaN1vE,Unevano,Pinnz,Wayne,Mr Hive\nand all P2P groups \nGreat Work Guys :D","torrent":{"xt":"urn:btih:8d32249ff7e23373fdac69fecf28747dfd675866","amp;dn":"Let.Me.In.2010.BDRip.XVID.AC3.HQ.Hive-CM8","amp;tr":["udp%3A%2F%2Ftracker.openbittorrent.com%3A80","udp%3A%2F%2Fopen.demonii.com%3A1337","udp%3A%2F%2Ftracker.coppersurfer.tk%3A6969","udp%3A%2F%2Fexodus.desync.com%3A6969"],"infoHash":"8d32249ff7e23373fdac69fecf28747dfd675866","infoHashBuffer":{"type":"Buffer","data":[141,50,36,159,247,226,51,115,253,172,105,254,207,40,116,125,253,103,88,102]},"announce":[],"urlList":[]}}